<svg width="40" height="40" viewBox="0 0 40 40" fill="none" xmlns="http://www.w3.org/2000/svg">
<rect width="40" height="40" rx="6" fill="#805AD5"/>
<path d="M12.8309 26.752C15.2969 26.752 16.7189 25.33 16.7189 22.72V15.664H18.1229V13.9H12.5789V15.664H14.7749V22.72C14.7749 24.088 14.1449 24.934 12.7949 24.934C11.3909 24.934 10.6529 24.07 10.6529 22.72V21.64H8.70891V22.72C8.70891 25.294 10.2929 26.752 12.8309 26.752ZM25.4298 29.578H27.2298V28.03H26.1138C25.7898 28.03 25.6098 27.85 25.6098 27.49V26.698C28.1478 26.356 29.7318 24.61 29.7318 21.676V18.724C29.7318 15.43 27.7518 13.648 24.6558 13.648C21.5598 13.648 19.5978 15.43 19.5978 18.724V21.676C19.5978 24.61 21.1638 26.356 23.7018 26.698V27.814C23.7018 28.894 24.4038 29.578 25.4298 29.578ZM24.6558 25.006C22.6938 25.006 21.5418 23.764 21.5418 21.748V18.652C21.5418 16.636 22.6938 15.394 24.6558 15.394C26.6178 15.394 27.7698 16.636 27.7698 18.652V21.748C27.7698 23.764 26.6178 25.006 24.6558 25.006Z" fill="white"/>
</svg>
